<?xml version="1.0" standalone="no"?><!DOCTYPE svg PUBLIC "-//W3C//DTD SVG 1.1//EN" "http://www.w3.org/Graphics/SVG/1.1/DTD/svg11.dtd"><svg t="1659949078425" class="icon" viewBox="0 0 1024 1024" version="1.1" xmlns="http://www.w3.org/2000/svg" p-id="796" width="48" height="48" xmlns:xlink="http://www.w3.org/1999/xlink"><defs><style type="text/css">@font-face { font-family: feedback-iconfont; src: url("//at.alicdn.com/t/font_1031158_u69w8yhxdu.woff2?t=1630033759944") format("woff2"), url("//at.alicdn.com/t/font_1031158_u69w8yhxdu.woff?t=1630033759944") format("woff"), url("//at.alicdn.com/t/font_1031158_u69w8yhxdu.ttf?t=1630033759944") format("truetype"); }
</style></defs><path d="M392.22018614 470.55958993h-195.28083146c-61.30909924 0-110.12930711-49.95556235-110.1293071-110.12930554v-195.28083301c0-61.30909924 49.95556235-110.12930711 110.1293071-110.12930711h195.28083146c61.30909924 0 110.12930711 49.95556235 110.12930711 110.12930711V359.29492993c0 61.30909924-48.82020786 111.26466-110.12930711 111.26466z m-195.28083146-382.61418945c-42.00808573 0-76.06869642 34.0606107-76.06869643 76.06869643V359.29492993c0 42.00808573 34.0606107 76.06869642 76.06869643 76.06869642h195.28083146c42.00808573 0 76.06869642-34.0606107 76.06869799-76.06869642v-195.28083302c0-42.00808573-34.0606107-76.06869642-76.06869799-76.06869643h-195.28083146zM392.22018614 946.27278194h-195.28083146c-61.30909924 0-110.12930711-49.95556235-110.1293071-110.12930709v-195.28083305c0-61.30909924 49.95556235-110.12930711 110.1293071-110.12930552h195.28083146c61.30909924 0 110.12930711 49.95556235 110.12930711 110.12930552V836.14347485c0 60.17374476-48.82020786 110.12930711-110.12930711 110.12930709z m-195.28083146-382.61418947c-42.00808573 0-76.06869642 34.0606107-76.06869643 76.06869643v195.28083302c0 42.00808573 34.0606107 76.06869642 76.06869643 76.06869644h195.28083146c42.00808573 0 76.06869642-34.0606107 76.06869799-76.06869644v-195.28083302c0-42.00808573-34.0606107-76.06869642-76.06869799-76.06869643h-195.28083146zM871.33944 946.27278194h-195.28083305c-61.30909924 0-110.12930711-49.95556235-110.12930709-110.12930709v-195.28083305c0-61.30909924 49.95556235-110.12930711 110.12930709-110.12930552h195.28083305c61.30909924 0 110.12930711 49.95556235 110.12930553 110.12930552V836.14347485c0 60.17374476-48.82020786 110.12930711-110.12930553 110.12930709z m-195.28083305-382.61418947c-42.00808573 0-76.06869642 34.0606107-76.06869641 76.06869643v195.28083302c0 42.00808573 34.0606107 76.06869642 76.06869641 76.06869644h195.28083305c42.00808573 0 76.06869642-34.0606107 76.06869641-76.06869644v-195.28083302c0-42.00808573-34.0606107-76.06869642-76.06869641-76.06869643h-195.28083305z" fill="#295dfa" p-id="797"></path><path d="M757.34283377 490.17992091c-24.48106321 0-48.96212786-9.57954602-68.12121989-28.73863953l-119.21213742-119.21213594c-37.25379221-37.25379221-37.25379221-98.98864908 0-136.24244126l119.21213742-119.21213742c37.25379221-37.25379221 98.98864908-37.25379221 136.24244127 0l119.21213593 119.21213742c37.25379221 37.25379221 37.25379221 98.98864908 0 136.24244126l-119.21213593 119.21213594c-18.0946987 19.15909351-42.57576335 28.73863953-68.12122138 28.73863953z m-45.76894487-51.09091455c25.54545802 25.54545802 65.99243322 25.54545802 91.53788976 0l119.2121374-119.21213741c25.54545802-25.54545802 25.54545802-65.99243322 0-91.53788975l-119.2121374-119.21213594c-25.54545802-25.54545802-65.99243322-25.54545802-91.53788976 0l-119.21213594 119.21213594c-25.54545802 25.54545802-25.54545802 65.99243322 0 91.53788975l119.21213594 119.21213741z" fill="#6695f4" p-id="798"></path></svg>